G04 #@! TF.GenerationSoftware,KiCad,Pcbnew,(5.1.2)-2*
G04 #@! TF.CreationDate,2019-08-09T21:51:25-03:00*
G04 #@! TF.ProjectId,Minicurso IEEE,4d696e69-6375-4727-936f-20494545452e,rev?*
G04 #@! TF.SameCoordinates,Original*
G04 #@! TF.FileFunction,Soldermask,Top*
G04 #@! TF.FilePolarity,Negative*
%FSLAX46Y46*%
G04 Gerber Fmt 4.6, Leading zero omitted, Abs format (unit mm)*
G04 Created by KiCad (PCBNEW (5.1.2)-2) date 2019-08-09 21:51:25*
%MOMM*%
%LPD*%
G04 APERTURE LIST*
%ADD10C,0.050000*%
%ADD11C,0.100000*%
G04 APERTURE END LIST*
D10*
X53340000Y-114300000D02*
X53340000Y-96520000D01*
X76200000Y-114300000D02*
X53340000Y-114300000D01*
X76200000Y-96520000D02*
X76200000Y-114300000D01*
X53340000Y-96520000D02*
X76200000Y-96520000D01*
D11*
G36*
X58129059Y-107537860D02*
G01*
X58189294Y-107562810D01*
X58265732Y-107594472D01*
X58388735Y-107676660D01*
X58493340Y-107781265D01*
X58575528Y-107904268D01*
X58632140Y-108040941D01*
X58661000Y-108186033D01*
X58661000Y-108333967D01*
X58632140Y-108479059D01*
X58575528Y-108615732D01*
X58493340Y-108738735D01*
X58388735Y-108843340D01*
X58265732Y-108925528D01*
X58265731Y-108925529D01*
X58265730Y-108925529D01*
X58129059Y-108982140D01*
X57983968Y-109011000D01*
X57836032Y-109011000D01*
X57690941Y-108982140D01*
X57554270Y-108925529D01*
X57554269Y-108925529D01*
X57554268Y-108925528D01*
X57431265Y-108843340D01*
X57326660Y-108738735D01*
X57244472Y-108615732D01*
X57187860Y-108479059D01*
X57159000Y-108333967D01*
X57159000Y-108186033D01*
X57187860Y-108040941D01*
X57244472Y-107904268D01*
X57326660Y-107781265D01*
X57431265Y-107676660D01*
X57554268Y-107594472D01*
X57630707Y-107562810D01*
X57690941Y-107537860D01*
X57836032Y-107509000D01*
X57983968Y-107509000D01*
X58129059Y-107537860D01*
X58129059Y-107537860D01*
G37*
G36*
X65603665Y-107512622D02*
G01*
X65677222Y-107519867D01*
X65818786Y-107562810D01*
X65949252Y-107632546D01*
X65979040Y-107656992D01*
X66063607Y-107726393D01*
X66133008Y-107810960D01*
X66157454Y-107840748D01*
X66227190Y-107971214D01*
X66270133Y-108112778D01*
X66284633Y-108260000D01*
X66270133Y-108407222D01*
X66227190Y-108548786D01*
X66157454Y-108679252D01*
X66137023Y-108704147D01*
X66063607Y-108793607D01*
X66003004Y-108843341D01*
X65949252Y-108887454D01*
X65818786Y-108957190D01*
X65677222Y-109000133D01*
X65603665Y-109007378D01*
X65566888Y-109011000D01*
X65493112Y-109011000D01*
X65456335Y-109007378D01*
X65382778Y-109000133D01*
X65241214Y-108957190D01*
X65110748Y-108887454D01*
X65056996Y-108843341D01*
X64996393Y-108793607D01*
X64922977Y-108704147D01*
X64902546Y-108679252D01*
X64832810Y-108548786D01*
X64789867Y-108407222D01*
X64775367Y-108260000D01*
X64789867Y-108112778D01*
X64832810Y-107971214D01*
X64902546Y-107840748D01*
X64926992Y-107810960D01*
X64996393Y-107726393D01*
X65080960Y-107656992D01*
X65110748Y-107632546D01*
X65241214Y-107562810D01*
X65382778Y-107519867D01*
X65456335Y-107512622D01*
X65493112Y-107509000D01*
X65566888Y-107509000D01*
X65603665Y-107512622D01*
X65603665Y-107512622D01*
G37*
G36*
X68828228Y-107131703D02*
G01*
X68983100Y-107195853D01*
X69122481Y-107288985D01*
X69241015Y-107407519D01*
X69334147Y-107546900D01*
X69398297Y-107701772D01*
X69431000Y-107866184D01*
X69431000Y-108033816D01*
X69398297Y-108198228D01*
X69334147Y-108353100D01*
X69241015Y-108492481D01*
X69122481Y-108611015D01*
X68983100Y-108704147D01*
X68828228Y-108768297D01*
X68663816Y-108801000D01*
X68496184Y-108801000D01*
X68331772Y-108768297D01*
X68176900Y-108704147D01*
X68037519Y-108611015D01*
X67918985Y-108492481D01*
X67825853Y-108353100D01*
X67761703Y-108198228D01*
X67729000Y-108033816D01*
X67729000Y-107866184D01*
X67761703Y-107701772D01*
X67825853Y-107546900D01*
X67918985Y-107407519D01*
X68037519Y-107288985D01*
X68176900Y-107195853D01*
X68331772Y-107131703D01*
X68496184Y-107099000D01*
X68663816Y-107099000D01*
X68828228Y-107131703D01*
X68828228Y-107131703D01*
G37*
G36*
X71328228Y-107131703D02*
G01*
X71483100Y-107195853D01*
X71622481Y-107288985D01*
X71741015Y-107407519D01*
X71834147Y-107546900D01*
X71898297Y-107701772D01*
X71931000Y-107866184D01*
X71931000Y-108033816D01*
X71898297Y-108198228D01*
X71834147Y-108353100D01*
X71741015Y-108492481D01*
X71622481Y-108611015D01*
X71483100Y-108704147D01*
X71328228Y-108768297D01*
X71163816Y-108801000D01*
X70996184Y-108801000D01*
X70831772Y-108768297D01*
X70676900Y-108704147D01*
X70537519Y-108611015D01*
X70418985Y-108492481D01*
X70325853Y-108353100D01*
X70261703Y-108198228D01*
X70229000Y-108033816D01*
X70229000Y-107866184D01*
X70261703Y-107701772D01*
X70325853Y-107546900D01*
X70418985Y-107407519D01*
X70537519Y-107288985D01*
X70676900Y-107195853D01*
X70831772Y-107131703D01*
X70996184Y-107099000D01*
X71163816Y-107099000D01*
X71328228Y-107131703D01*
X71328228Y-107131703D01*
G37*
G36*
X65603665Y-104362622D02*
G01*
X65677222Y-104369867D01*
X65818786Y-104412810D01*
X65949252Y-104482546D01*
X65979040Y-104506992D01*
X66063607Y-104576393D01*
X66133008Y-104660960D01*
X66157454Y-104690748D01*
X66227190Y-104821214D01*
X66270133Y-104962778D01*
X66284633Y-105110000D01*
X66270133Y-105257222D01*
X66227190Y-105398786D01*
X66157454Y-105529252D01*
X66133008Y-105559040D01*
X66063607Y-105643607D01*
X66003004Y-105693341D01*
X65949252Y-105737454D01*
X65818786Y-105807190D01*
X65677222Y-105850133D01*
X65603665Y-105857378D01*
X65566888Y-105861000D01*
X65493112Y-105861000D01*
X65456335Y-105857378D01*
X65382778Y-105850133D01*
X65241214Y-105807190D01*
X65110748Y-105737454D01*
X65056996Y-105693341D01*
X64996393Y-105643607D01*
X64926992Y-105559040D01*
X64902546Y-105529252D01*
X64832810Y-105398786D01*
X64789867Y-105257222D01*
X64775367Y-105110000D01*
X64789867Y-104962778D01*
X64832810Y-104821214D01*
X64902546Y-104690748D01*
X64926992Y-104660960D01*
X64996393Y-104576393D01*
X65080960Y-104506992D01*
X65110748Y-104482546D01*
X65241214Y-104412810D01*
X65382778Y-104369867D01*
X65456335Y-104362622D01*
X65493112Y-104359000D01*
X65566888Y-104359000D01*
X65603665Y-104362622D01*
X65603665Y-104362622D01*
G37*
G36*
X58129059Y-104387860D02*
G01*
X58264079Y-104443787D01*
X58265732Y-104444472D01*
X58388735Y-104526660D01*
X58493340Y-104631265D01*
X58575528Y-104754268D01*
X58632140Y-104890941D01*
X58661000Y-105036033D01*
X58661000Y-105183967D01*
X58632140Y-105329059D01*
X58575528Y-105465732D01*
X58493340Y-105588735D01*
X58388735Y-105693340D01*
X58265732Y-105775528D01*
X58265731Y-105775529D01*
X58265730Y-105775529D01*
X58129059Y-105832140D01*
X57983968Y-105861000D01*
X57836032Y-105861000D01*
X57690941Y-105832140D01*
X57554270Y-105775529D01*
X57554269Y-105775529D01*
X57554268Y-105775528D01*
X57431265Y-105693340D01*
X57326660Y-105588735D01*
X57244472Y-105465732D01*
X57187860Y-105329059D01*
X57159000Y-105183967D01*
X57159000Y-105036033D01*
X57187860Y-104890941D01*
X57244472Y-104754268D01*
X57326660Y-104631265D01*
X57431265Y-104526660D01*
X57554268Y-104444472D01*
X57555922Y-104443787D01*
X57690941Y-104387860D01*
X57836032Y-104359000D01*
X57983968Y-104359000D01*
X58129059Y-104387860D01*
X58129059Y-104387860D01*
G37*
G36*
X71642915Y-102847334D02*
G01*
X71751491Y-102880271D01*
X71751494Y-102880272D01*
X71787600Y-102899571D01*
X71851556Y-102933756D01*
X71939264Y-103005736D01*
X72011244Y-103093443D01*
X72045429Y-103157399D01*
X72064728Y-103193505D01*
X72064729Y-103193508D01*
X72097666Y-103302084D01*
X72106000Y-103386702D01*
X72106000Y-103893297D01*
X72097666Y-103977916D01*
X72065252Y-104084767D01*
X72064728Y-104086495D01*
X72054761Y-104105141D01*
X72011244Y-104186557D01*
X71939264Y-104274264D01*
X71851557Y-104346244D01*
X71787601Y-104380429D01*
X71751495Y-104399728D01*
X71751492Y-104399729D01*
X71642916Y-104432666D01*
X71530000Y-104443787D01*
X71417085Y-104432666D01*
X71308509Y-104399729D01*
X71308506Y-104399728D01*
X71272400Y-104380429D01*
X71208444Y-104346244D01*
X71120737Y-104274264D01*
X71048757Y-104186557D01*
X71005239Y-104105141D01*
X70991625Y-104084766D01*
X70974298Y-104067439D01*
X70953924Y-104053826D01*
X70931285Y-104044448D01*
X70907252Y-104039668D01*
X70882748Y-104039668D01*
X70858715Y-104044448D01*
X70836076Y-104053826D01*
X70815701Y-104067440D01*
X70798374Y-104084767D01*
X70784761Y-104105141D01*
X70741244Y-104186557D01*
X70669264Y-104274264D01*
X70581557Y-104346244D01*
X70517601Y-104380429D01*
X70481495Y-104399728D01*
X70481492Y-104399729D01*
X70372916Y-104432666D01*
X70260000Y-104443787D01*
X70147085Y-104432666D01*
X70038509Y-104399729D01*
X70038506Y-104399728D01*
X70002400Y-104380429D01*
X69938444Y-104346244D01*
X69850737Y-104274264D01*
X69787622Y-104197359D01*
X69770297Y-104180034D01*
X69749923Y-104166420D01*
X69727284Y-104157043D01*
X69703250Y-104152263D01*
X69678746Y-104152263D01*
X69654713Y-104157044D01*
X69632074Y-104166421D01*
X69611700Y-104180035D01*
X69594373Y-104197362D01*
X69580759Y-104217736D01*
X69571382Y-104240375D01*
X69566000Y-104276660D01*
X69566000Y-104441000D01*
X68414000Y-104441000D01*
X68414000Y-102839000D01*
X69566000Y-102839000D01*
X69566000Y-103003341D01*
X69568402Y-103027727D01*
X69575515Y-103051176D01*
X69587066Y-103072787D01*
X69602611Y-103091729D01*
X69621553Y-103107274D01*
X69643164Y-103118825D01*
X69666613Y-103125938D01*
X69690999Y-103128340D01*
X69715385Y-103125938D01*
X69738834Y-103118825D01*
X69760445Y-103107274D01*
X69779387Y-103091729D01*
X69787608Y-103082657D01*
X69850736Y-103005736D01*
X69938443Y-102933756D01*
X70002399Y-102899571D01*
X70038505Y-102880272D01*
X70038508Y-102880271D01*
X70147084Y-102847334D01*
X70260000Y-102836213D01*
X70372915Y-102847334D01*
X70481491Y-102880271D01*
X70481494Y-102880272D01*
X70517600Y-102899571D01*
X70581556Y-102933756D01*
X70669264Y-103005736D01*
X70741244Y-103093443D01*
X70784761Y-103174859D01*
X70798375Y-103195234D01*
X70815702Y-103212561D01*
X70836076Y-103226174D01*
X70858715Y-103235552D01*
X70882748Y-103240332D01*
X70907252Y-103240332D01*
X70931285Y-103235552D01*
X70953924Y-103226174D01*
X70974299Y-103212560D01*
X70991626Y-103195233D01*
X71005239Y-103174860D01*
X71048756Y-103093444D01*
X71120736Y-103005736D01*
X71208443Y-102933756D01*
X71272399Y-102899571D01*
X71308505Y-102880272D01*
X71308508Y-102880271D01*
X71417084Y-102847334D01*
X71530000Y-102836213D01*
X71642915Y-102847334D01*
X71642915Y-102847334D01*
G37*
G36*
X58129059Y-101237860D02*
G01*
X58189294Y-101262810D01*
X58265732Y-101294472D01*
X58388735Y-101376660D01*
X58493340Y-101481265D01*
X58575528Y-101604268D01*
X58632140Y-101740941D01*
X58661000Y-101886033D01*
X58661000Y-102033967D01*
X58632140Y-102179059D01*
X58575528Y-102315732D01*
X58493340Y-102438735D01*
X58388735Y-102543340D01*
X58265732Y-102625528D01*
X58265731Y-102625529D01*
X58265730Y-102625529D01*
X58129059Y-102682140D01*
X57983968Y-102711000D01*
X57836032Y-102711000D01*
X57690941Y-102682140D01*
X57554270Y-102625529D01*
X57554269Y-102625529D01*
X57554268Y-102625528D01*
X57431265Y-102543340D01*
X57326660Y-102438735D01*
X57244472Y-102315732D01*
X57187860Y-102179059D01*
X57159000Y-102033967D01*
X57159000Y-101886033D01*
X57187860Y-101740941D01*
X57244472Y-101604268D01*
X57326660Y-101481265D01*
X57431265Y-101376660D01*
X57554268Y-101294472D01*
X57630707Y-101262810D01*
X57690941Y-101237860D01*
X57836032Y-101209000D01*
X57983968Y-101209000D01*
X58129059Y-101237860D01*
X58129059Y-101237860D01*
G37*
G36*
X65603665Y-101212622D02*
G01*
X65677222Y-101219867D01*
X65818786Y-101262810D01*
X65949252Y-101332546D01*
X65979040Y-101356992D01*
X66063607Y-101426393D01*
X66133008Y-101510960D01*
X66157454Y-101540748D01*
X66227190Y-101671214D01*
X66270133Y-101812778D01*
X66284633Y-101960000D01*
X66270133Y-102107222D01*
X66227190Y-102248786D01*
X66157454Y-102379252D01*
X66133008Y-102409040D01*
X66063607Y-102493607D01*
X66003004Y-102543341D01*
X65949252Y-102587454D01*
X65818786Y-102657190D01*
X65677222Y-102700133D01*
X65603665Y-102707378D01*
X65566888Y-102711000D01*
X65493112Y-102711000D01*
X65456335Y-102707378D01*
X65382778Y-102700133D01*
X65241214Y-102657190D01*
X65110748Y-102587454D01*
X65056996Y-102543341D01*
X64996393Y-102493607D01*
X64926992Y-102409040D01*
X64902546Y-102379252D01*
X64832810Y-102248786D01*
X64789867Y-102107222D01*
X64775367Y-101960000D01*
X64789867Y-101812778D01*
X64832810Y-101671214D01*
X64902546Y-101540748D01*
X64926992Y-101510960D01*
X64996393Y-101426393D01*
X65080960Y-101356992D01*
X65110748Y-101332546D01*
X65241214Y-101262810D01*
X65382778Y-101219867D01*
X65456335Y-101212622D01*
X65493112Y-101209000D01*
X65566888Y-101209000D01*
X65603665Y-101212622D01*
X65603665Y-101212622D01*
G37*
M02*
