G04 #@! TF.GenerationSoftware,KiCad,Pcbnew,(5.1.2)-2*
G04 #@! TF.CreationDate,2019-08-09T21:51:25-03:00*
G04 #@! TF.ProjectId,Minicurso IEEE,4d696e69-6375-4727-936f-20494545452e,rev?*
G04 #@! TF.SameCoordinates,Original*
G04 #@! TF.FileFunction,Copper,L1,Top*
G04 #@! TF.FilePolarity,Positive*
%FSLAX46Y46*%
G04 Gerber Fmt 4.6, Leading zero omitted, Abs format (unit mm)*
G04 Created by KiCad (PCBNEW (5.1.2)-2) date 2019-08-09 21:51:25*
%MOMM*%
%LPD*%
G04 APERTURE LIST*
%ADD10C,0.050000*%
%ADD11O,1.400000X1.400000*%
%ADD12C,1.400000*%
%ADD13R,1.050000X1.500000*%
%ADD14O,1.050000X1.500000*%
%ADD15C,1.600000*%
%ADD16C,1.000000*%
G04 APERTURE END LIST*
D10*
X53340000Y-114300000D02*
X53340000Y-96520000D01*
X76200000Y-114300000D02*
X53340000Y-114300000D01*
X76200000Y-96520000D02*
X76200000Y-114300000D01*
X53340000Y-96520000D02*
X76200000Y-96520000D01*
D11*
X65530000Y-108260000D03*
D12*
X57910000Y-108260000D03*
D11*
X65530000Y-105110000D03*
D12*
X57910000Y-105110000D03*
D11*
X65530000Y-101960000D03*
D12*
X57910000Y-101960000D03*
D13*
X68990000Y-103640000D03*
D14*
X71530000Y-103640000D03*
X70260000Y-103640000D03*
D15*
X71080000Y-107950000D03*
X68580000Y-107950000D03*
D16*
X71530000Y-105390000D02*
X71530000Y-103640000D01*
X72580001Y-106440001D02*
X71530000Y-105390000D01*
X72580001Y-108670001D02*
X72580001Y-106440001D01*
X64857999Y-109660001D02*
X71590001Y-109660001D01*
X63457998Y-108260000D02*
X64857999Y-109660001D01*
X71590001Y-109660001D02*
X72580001Y-108670001D01*
X57910000Y-108260000D02*
X63457998Y-108260000D01*
X57910000Y-101960000D02*
X57910000Y-105110000D01*
X70260000Y-101890000D02*
X70260000Y-103640000D01*
X68929999Y-100559999D02*
X70260000Y-101890000D01*
X62460001Y-100559999D02*
X68929999Y-100559999D01*
X57910000Y-105110000D02*
X62460001Y-100559999D01*
X68580000Y-106818630D02*
X68580000Y-107950000D01*
X68580000Y-105765002D02*
X68580000Y-106818630D01*
X66229999Y-103415001D02*
X68580000Y-105765002D01*
X66229999Y-102659999D02*
X66229999Y-103415001D01*
X65530000Y-101960000D02*
X66229999Y-102659999D01*
X65530000Y-105110000D02*
X65530000Y-108260000D01*
M02*
