G04 #@! TF.GenerationSoftware,KiCad,Pcbnew,(5.1.2)-2*
G04 #@! TF.CreationDate,2019-08-09T21:51:25-03:00*
G04 #@! TF.ProjectId,Minicurso IEEE,4d696e69-6375-4727-936f-20494545452e,rev?*
G04 #@! TF.SameCoordinates,Original*
G04 #@! TF.FileFunction,Legend,Top*
G04 #@! TF.FilePolarity,Positive*
%FSLAX46Y46*%
G04 Gerber Fmt 4.6, Leading zero omitted, Abs format (unit mm)*
G04 Created by KiCad (PCBNEW (5.1.2)-2) date 2019-08-09 21:51:25*
%MOMM*%
%LPD*%
G04 APERTURE LIST*
%ADD10C,0.050000*%
%ADD11C,0.120000*%
%ADD12C,0.150000*%
G04 APERTURE END LIST*
D10*
X53340000Y-114300000D02*
X53340000Y-96520000D01*
X76200000Y-114300000D02*
X53340000Y-114300000D01*
X76200000Y-96520000D02*
X76200000Y-114300000D01*
X53340000Y-96520000D02*
X76200000Y-96520000D01*
D11*
X64590000Y-108260000D02*
X63640000Y-108260000D01*
X58850000Y-108260000D02*
X59800000Y-108260000D01*
X63640000Y-107340000D02*
X59800000Y-107340000D01*
X63640000Y-109180000D02*
X63640000Y-107340000D01*
X59800000Y-109180000D02*
X63640000Y-109180000D01*
X59800000Y-107340000D02*
X59800000Y-109180000D01*
X64590000Y-105110000D02*
X63640000Y-105110000D01*
X58850000Y-105110000D02*
X59800000Y-105110000D01*
X63640000Y-104190000D02*
X59800000Y-104190000D01*
X63640000Y-106030000D02*
X63640000Y-104190000D01*
X59800000Y-106030000D02*
X63640000Y-106030000D01*
X59800000Y-104190000D02*
X59800000Y-106030000D01*
X64590000Y-101960000D02*
X63640000Y-101960000D01*
X58850000Y-101960000D02*
X59800000Y-101960000D01*
X63640000Y-101040000D02*
X59800000Y-101040000D01*
X63640000Y-102880000D02*
X63640000Y-101040000D01*
X59800000Y-102880000D02*
X63640000Y-102880000D01*
X59800000Y-101040000D02*
X59800000Y-102880000D01*
X72098478Y-105478478D02*
G75*
G03X70260000Y-101040000I-1838478J1838478D01*
G01*
X68421522Y-105478478D02*
G75*
G02X70260000Y-101040000I1838478J1838478D01*
G01*
X68460000Y-105490000D02*
X72060000Y-105490000D01*
X71450000Y-109005000D02*
X71450000Y-109070000D01*
X71450000Y-106830000D02*
X71450000Y-106895000D01*
X68210000Y-109005000D02*
X68210000Y-109070000D01*
X68210000Y-106830000D02*
X68210000Y-106895000D01*
X68210000Y-109070000D02*
X71450000Y-109070000D01*
X68210000Y-106830000D02*
X71450000Y-106830000D01*
D12*
X61553333Y-106792380D02*
X61220000Y-106316190D01*
X60981904Y-106792380D02*
X60981904Y-105792380D01*
X61362857Y-105792380D01*
X61458095Y-105840000D01*
X61505714Y-105887619D01*
X61553333Y-105982857D01*
X61553333Y-106125714D01*
X61505714Y-106220952D01*
X61458095Y-106268571D01*
X61362857Y-106316190D01*
X60981904Y-106316190D01*
X61886666Y-105792380D02*
X62505714Y-105792380D01*
X62172380Y-106173333D01*
X62315238Y-106173333D01*
X62410476Y-106220952D01*
X62458095Y-106268571D01*
X62505714Y-106363809D01*
X62505714Y-106601904D01*
X62458095Y-106697142D01*
X62410476Y-106744761D01*
X62315238Y-106792380D01*
X62029523Y-106792380D01*
X61934285Y-106744761D01*
X61886666Y-106697142D01*
X61553333Y-103642380D02*
X61220000Y-103166190D01*
X60981904Y-103642380D02*
X60981904Y-102642380D01*
X61362857Y-102642380D01*
X61458095Y-102690000D01*
X61505714Y-102737619D01*
X61553333Y-102832857D01*
X61553333Y-102975714D01*
X61505714Y-103070952D01*
X61458095Y-103118571D01*
X61362857Y-103166190D01*
X60981904Y-103166190D01*
X61934285Y-102737619D02*
X61981904Y-102690000D01*
X62077142Y-102642380D01*
X62315238Y-102642380D01*
X62410476Y-102690000D01*
X62458095Y-102737619D01*
X62505714Y-102832857D01*
X62505714Y-102928095D01*
X62458095Y-103070952D01*
X61886666Y-103642380D01*
X62505714Y-103642380D01*
X61553333Y-100492380D02*
X61220000Y-100016190D01*
X60981904Y-100492380D02*
X60981904Y-99492380D01*
X61362857Y-99492380D01*
X61458095Y-99540000D01*
X61505714Y-99587619D01*
X61553333Y-99682857D01*
X61553333Y-99825714D01*
X61505714Y-99920952D01*
X61458095Y-99968571D01*
X61362857Y-100016190D01*
X60981904Y-100016190D01*
X62505714Y-100492380D02*
X61934285Y-100492380D01*
X62220000Y-100492380D02*
X62220000Y-99492380D01*
X62124761Y-99635238D01*
X62029523Y-99730476D01*
X61934285Y-99778095D01*
X70164761Y-100627619D02*
X70069523Y-100580000D01*
X69974285Y-100484761D01*
X69831428Y-100341904D01*
X69736190Y-100294285D01*
X69640952Y-100294285D01*
X69688571Y-100532380D02*
X69593333Y-100484761D01*
X69498095Y-100389523D01*
X69450476Y-100199047D01*
X69450476Y-99865714D01*
X69498095Y-99675238D01*
X69593333Y-99580000D01*
X69688571Y-99532380D01*
X69879047Y-99532380D01*
X69974285Y-99580000D01*
X70069523Y-99675238D01*
X70117142Y-99865714D01*
X70117142Y-100199047D01*
X70069523Y-100389523D01*
X69974285Y-100484761D01*
X69879047Y-100532380D01*
X69688571Y-100532380D01*
X71069523Y-100532380D02*
X70498095Y-100532380D01*
X70783809Y-100532380D02*
X70783809Y-99532380D01*
X70688571Y-99675238D01*
X70593333Y-99770476D01*
X70498095Y-99818095D01*
X69663333Y-106057142D02*
X69615714Y-106104761D01*
X69472857Y-106152380D01*
X69377619Y-106152380D01*
X69234761Y-106104761D01*
X69139523Y-106009523D01*
X69091904Y-105914285D01*
X69044285Y-105723809D01*
X69044285Y-105580952D01*
X69091904Y-105390476D01*
X69139523Y-105295238D01*
X69234761Y-105200000D01*
X69377619Y-105152380D01*
X69472857Y-105152380D01*
X69615714Y-105200000D01*
X69663333Y-105247619D01*
X70615714Y-106152380D02*
X70044285Y-106152380D01*
X70330000Y-106152380D02*
X70330000Y-105152380D01*
X70234761Y-105295238D01*
X70139523Y-105390476D01*
X70044285Y-105438095D01*
M02*
